<?xml version="1.0" encoding="UTF-8" standalone="no"?>
<!-- Created with Inkscape (http://www.inkscape.org/) -->

<svg
   width="64"
   height="64"
   viewBox="0 0 416.45426 416.45416"
   version="1.1"
   id="svg140"
   sodipodi:docname="logo svg color.svg"
   inkscape:version="1.1.1 (3bf5ae0d25, 2021-09-20)"
   xmlns:inkscape="http://www.inkscape.org/namespaces/inkscape"
   xmlns:sodipodi="http://sodipodi.sourceforge.net/DTD/sodipodi-0.dtd"
   xmlns="http://www.w3.org/2000/svg"
   xmlns:svg="http://www.w3.org/2000/svg">
  <sodipodi:namedview
     id="namedview142"
     pagecolor="#ffffff"
     bordercolor="#111111"
     borderopacity="1"
     inkscape:pageshadow="0"
     inkscape:pageopacity="0"
     inkscape:pagecheckerboard="1"
     inkscape:document-units="mm"
     showgrid="false"
     inkscape:zoom="0.5499273"
     inkscape:cx="1375.6364"
     inkscape:cy="433.69369"
     inkscape:window-width="2560"
     inkscape:window-height="1369"
     inkscape:window-x="-8"
     inkscape:window-y="1072"
     inkscape:window-maximized="1"
     inkscape:current-layer="svg140"
     width="2000mm"
     units="px" />
  <defs
     id="defs137" />
  <g
     id="g150"
     inkscape:label="icon"
     transform="matrix(0.35277777,0,0,-0.35277777,-144.57158,561.17292)">
    <g
       id="g154"
       transform="translate(1401.103,762.8779)">
      <path
         d="M 0,0 -133.085,133.083 188.636,454.803 25.039,618.398 -460.28,133.082 -163.596,-163.599 0,-0.001 Z"
         style="fill:#71dbb8;fill-opacity:1;fill-rule:nonzero;stroke:none"
         id="path156" />
    </g>
    <g
       id="g158"
       transform="translate(1268.0181,895.9604)">
      <path
         d="M 0,0 321.721,321.72 158.124,485.316 -327.195,0 Z"
         style="fill:#55be9f;fill-opacity:1;fill-rule:nonzero;stroke:none"
         id="path160" />
    </g>
    <g
       id="g162"
       transform="translate(1589.7388,574.2417)">
      <path
         d="M 0,0 -148.275,148.275 -311.873,-15.321 -163.597,-163.597 Z"
         style="fill:#ffffff;fill-opacity:1;fill-rule:nonzero;stroke:none"
         id="path164" />
    </g>
    <g
       id="g166"
       transform="translate(598.897,970.9541)">
      <path
         d="M 0,0 133.082,133.082 -188.636,454.803 -25.038,618.401 460.276,133.082 163.597,-163.597 0,0.001 Z"
         style="fill:#5bd0f4;fill-opacity:1;fill-rule:nonzero;stroke:none"
         id="path168" />
    </g>
    <g
       id="g170"
       transform="translate(731.979,1104.0361)">
      <path
         d="M 0,0 -321.718,321.721 -158.12,485.319 327.194,0 Z"
         style="fill:#0095d3;fill-opacity:1;fill-rule:nonzero;stroke:none"
         id="path172" />
    </g>
    <g
       id="g174"
       transform="translate(410.2612,782.3188)">
      <path
         d="M 0,0 148.275,148.275 311.873,-15.322 163.597,-163.597 Z"
         style="fill:#ffffff;fill-opacity:1;fill-rule:nonzero;stroke:none"
         id="path176" />
    </g>
  </g>
</svg>
