<?xml version="1.0" encoding="UTF-8" standalone="no" ?>
<!DOCTYPE svg PUBLIC "-//W3C//DTD SVG 1.1//EN" "http://www.w3.org/Graphics/SVG/1.1/DTD/svg11.dtd">
<svg xmlns="http://www.w3.org/2000/svg" xmlns:xlink="http://www.w3.org/1999/xlink" version="1.1" width="600" height="600" viewBox="0 0 1080 1080" xml:space="preserve">
<desc>Created with Fabric.js 5.2.4</desc>
<defs>
</defs>
<g transform="matrix(1 0 0 1 540 540)" id="c281a650-6669-4b83-bd7f-84500eb167fc"  >
<rect style="stroke: none; stroke-width: 1; stroke-dasharray: none; stroke-linecap: butt; stroke-dashoffset: 0; stroke-linejoin: miter; stroke-miterlimit: 4; fill: #6edbb9; fill-rule: nonzero; opacity: 1; visibility: hidden;" vector-effect="non-scaling-stroke"  x="-540" y="-540" rx="0" ry="0" width="1080" height="1080" />
</g>
<g transform="matrix(1 0 0 1 540 540)" id="1221078d-d4a0-41cc-a752-30b35d281525"  >
</g>
<g transform="matrix(1 0 0 1 585.53 504.43)"  >
<g style="" vector-effect="non-scaling-stroke"   >
		<g transform="matrix(1 0 0 1 -0.32 -0.43)"  >
<path style="stroke: none; stroke-width: 1; stroke-dasharray: none; stroke-linecap: butt; stroke-dashoffset: 0; stroke-linejoin: miter; stroke-miterlimit: 4; fill: #6edbb9; fill-rule: evenodd; opacity: 1;" vector-effect="non-scaling-stroke"  transform=" translate(-516.2, -500.8)" d="M 501.214 42.042 C 485.13 44.204 472.033 54.907 466.404 70.489 L 464.232 76.5 L 454.866 79.785 C 434.957 86.767 421.254 96.371 406.047 114 C 402.639 117.952 396.847 128.611 395.044 134.25 C 393.888 137.865 393.679 138 389.253 138 C 385.999 138 383.113 137.126 379.346 135 C 372.819 131.316 370.736 131.249 368.073 134.635 C 366.411 136.748 366.004 138.68 366.021 144.385 C 366.047 153.061 369.033 162.169 374.895 171.451 L 379 177.951 L 379.006 199.725 C 379.009 212.51 379.467 223.151 380.115 225.5 C 381.186 229.379 389.694 239.146 392.877 240.15 C 394.73 240.735 395.668 250.49 394.058 252.431 C 393.4 253.223 391.569 254.155 389.989 254.502 C 385.603 255.466 379.416 260.429 376.643 265.208 C 368.726 278.854 370.825 295.869 381.778 306.828 C 386.935 311.988 395.441 315.995 401.279 316.014 C 409.368 316.04 409.999 316.535 410.012 322.867 C 410.036 334.162 415.675 347.604 424.148 356.563 C 429.804 362.543 439.963 369.649 448.901 373.876 C 455.455 376.975 458 378.722 458 380.122 C 458 380.605 452.262 381.009 445.25 381.02 C 426.124 381.05 416.189 382.88 405 388.434 C 397.764 392.027 395.849 393.23 389.281 398.311 C 383.96 402.428 378.518 408.178 357.397 432 C 332.074 460.56 321.465 472 320.3 472 C 319.811 472 317.672 465.081 315.547 456.625 L 311.684 441.25 L 315.342 437.591 C 317.354 435.579 319 432.94 319 431.727 C 319 428.693 315.085 410.416 313.362 405.407 C 311.805 400.881 309.071 398.926 303.937 398.67 C 300.703 398.508 300.49 398.258 299.404 393.359 C 296.57 380.583 296.227 381.932 303.528 377.132 C 316.999 368.276 338.306 348.648 341.123 342.5 C 345.192 333.621 342.295 320.978 334.654 314.269 C 330.247 310.4 321.33 307.553 316.733 308.548 C 310.909 309.809 305.594 312.931 299.771 318.511 C 296.62 321.53 293.635 324 293.138 324 C 291.568 324 291.022 320.075 289.456 297.5 C 285.644 242.572 285.29 239.206 282.931 235.388 C 278.276 227.856 273.367 224.516 265.402 223.459 C 256.067 222.221 244.009 230.107 242.438 238.479 C 242.075 240.415 241.428 242 241.001 242 C 240.574 242 237.225 240.596 233.559 238.881 C 226.113 235.397 222.019 235.419 215.034 238.983 C 208.504 242.314 205.637 246.826 203.587 257 C 203.13 259.27 202.581 259.517 197.609 259.689 C 194.598 259.794 190.867 260.552 189.317 261.374 C 176.985 267.918 174.379 279.737 181.241 298 C 184.611 306.97 190.222 323.142 200.671 354 C 206.244 370.459 207.768 373.546 213.508 380.009 C 215.978 382.791 218.004 386.064 218.009 387.283 C 218.014 388.503 219.164 394.45 220.563 400.5 C 224.818 418.886 224.848 417.527 220.134 419.932 C 217.528 421.261 215.805 422.93 215.409 424.508 C 214.856 426.71 218.555 446.19 221.137 454.668 C 222.443 458.959 226.122 461.255 230.405 460.452 L 233.758 459.823 L 234.997 465.161 C 243.867 503.394 252.399 535.119 255.6 541.776 C 262.185 555.466 277.05 567.702 291 570.915 C 304.341 573.987 322.314 570.221 334.154 561.872 C 335.614 560.842 337.302 560 337.904 560 C 339.527 560 339.379 575.925 337.75 576.517 C 337.063 576.766 314.756 577.09 288.181 577.235 L 239.862 577.5 L 240.455 575 C 243.109 563.81 241.824 554.742 236.756 548.898 C 232.723 544.248 224.394 541.507 219.072 543.078 C 218.059 543.377 217.411 542.213 216.844 539.073 C 216.404 536.637 215.471 534.282 214.772 533.838 C 214.072 533.394 201.8 532.952 187.5 532.856 C 173.2 532.76 158.871 532.569 155.658 532.432 C 145.948 532.019 145.904 532.128 146.044 556.287 L 146.161 576.5 L 117.831 577 C 97.66 577.356 88.864 577.864 87.293 578.762 C 84.053 580.615 83.725 584.218 84.222 612.57 L 84.669 638.123 L 87.173 640.627 C 89.514 642.969 90.521 643.169 102.703 643.711 L 115.729 644.29 L 115.915 785.157 C 116.067 899.996 115.861 926.113 114.801 926.504 C 114.085 926.767 107.501 927.1 100.168 927.242 C 88.296 927.472 86.68 927.713 85.418 929.441 C 83.521 932.038 83.625 935.444 85.654 937.128 C 87.031 938.27 109.989 938.584 222.904 939 L 358.5 939.5 L 358.5 943.5 L 358.5 947.5 L 337.66 948 C 317.248 948.49 316.78 948.549 314.91 950.861 C 312.444 953.909 312.5 954.591 315.455 957.545 L 317.909 960 L 539.3 960 C 752.509 960 760.751 959.932 762.345 958.171 C 764.469 955.825 764.47 951.635 762.347 949.872 C 761.006 948.759 750.193 948.406 705.097 948 L 649.5 947.5 L 649.5 943.5 L 649.5 939.5 L 797.18 939.247 L 944.86 938.993 L 946.833 936.485 C 947.948 935.068 948.584 933.125 948.295 932.021 C 947.181 927.762 945.724 927.502 922.596 927.449 L 900.5 927.399 L 900.247 785.199 L 899.993 643 L 912.822 643 C 931.352 643 930 645.609 930 609.841 C 930 576 930.634 577.773 918.311 577.151 L 910.8 576.771 L 909.15 573.123 C 902.1 557.534 883.667 545 867.79 545 C 865.705 545 864 544.553 864 544.007 C 864 541.958 890.722 464.452 894.515 455.5 C 896.591 450.601 896.179 451.011 899.627 450.42 C 905.846 449.355 909 447.724 912.787 443.615 C 917.776 438.203 919.329 433.513 918.814 425.422 C 918.494 420.391 917.782 418.138 915.448 414.771 C 911.966 409.747 903.49 405 898.002 405 C 891.748 405 884.542 407.732 880.895 411.485 C 879.028 413.407 877.197 414.983 876.827 414.989 C 876.457 414.995 871.507 412.825 865.827 410.166 C 860.147 407.508 853.348 404.516 850.717 403.518 C 848.087 402.52 845.718 401.353 845.454 400.925 C 845.189 400.497 846.138 396.626 847.563 392.323 C 851.663 379.937 850.088 372.898 841.304 364.361 C 836.98 360.159 836.853 359.873 838.314 357.643 C 840.194 354.774 838.814 351.314 834.916 349.126 C 831.228 347.056 827.704 348.3 825.771 352.353 C 824.159 355.735 824.098 355.76 819.56 354.912 C 813.414 353.764 805.516 355.369 801.233 358.636 C 796.913 361.931 792.963 368.115 788.932 377.892 C 787.207 382.076 785.391 385.928 784.898 386.45 C 784.404 386.973 784 388.178 784 389.129 C 784 390.432 782.584 391.145 778.25 392.023 C 766.062 394.493 752.694 403.541 746.195 413.72 C 742.088 420.152 738.757 428.897 739.415 431.519 C 740.027 433.954 740.472 434.187 759.5 442.012 C 767.2 445.178 776.425 449.102 780 450.73 C 783.575 452.359 792.125 456.045 799 458.922 C 805.875 461.799 816.365 466.368 822.312 469.076 C 833.415 474.133 836.989 474.93 838.785 472.75 C 839.351 472.063 841.492 466.397 843.541 460.16 C 847.019 449.576 847.23 448.243 846.708 440.16 C 846.178 431.971 844.309 425.366 840.359 417.728 C 837.489 412.176 840.013 412.541 857.266 420.167 L 873.793 427.472 L 874.378 431.744 C 875.021 436.432 876.855 439.875 881.226 444.595 L 884.093 447.691 L 881.93 453.095 C 878.261 462.261 857.245 522.95 853.473 535.27 C 852.164 539.543 850.821 543.48 850.488 544.02 C 850.123 544.61 841.442 545 828.651 545 C 805.651 545 800.995 545.688 790.37 550.658 C 782.901 554.151 772.23 564.628 768.929 571.709 L 766.5 576.918 L 740.75 576.959 L 715 577 L 714.992 573.25 C 714.968 561.272 710.835 550.231 696.741 524.5 C 694.331 520.1 688.172 508.625 683.054 499 C 677.935 489.375 671.615 477.675 669.01 473 C 666.404 468.325 662.355 460.9 660.013 456.5 C 636.334 412.018 629.99 403.13 615 393.435 C 600.786 384.243 587.521 380.801 567.321 381.065 C 550.231 381.288 550.062 380.328 565.701 371.876 C 589.265 359.142 599.844 344.151 601.251 321.5 L 601.5 317.5 L 608 316.72 C 620.424 315.229 631.683 307.163 636.919 296.002 C 640.581 288.196 640.446 277.879 636.575 269.728 C 632.86 261.904 629.685 258.377 623.62 255.331 C 620.804 253.916 618.338 252.614 618.14 252.437 C 617.942 252.259 617.551 249.398 617.272 246.078 C 616.764 240.053 616.768 240.04 620.132 238.271 C 625.669 235.359 630.599 229.67 631.751 224.862 C 632.395 222.175 632.64 210.952 632.389 195.633 C 631.934 167.803 631.587 166.173 624.974 160.859 C 621.464 158.038 621.206 157.44 620.577 150.681 C 618.445 127.744 601.764 103.721 578.107 89.519 C 569.792 84.528 563.643 81.637 557.672 79.912 C 551.975 78.266 551.969 78.26 549.075 70.342 C 547.837 66.954 544.714 61.554 542.134 58.342 C 531.939 45.644 517.425 39.863 501.214 42.042 M 501.344 55.005 C 495.399 56.233 489.07 59.702 484.85 64.042 C 481.423 67.567 479.261 71.594 480.26 72.593 C 480.503 72.836 484.031 72.561 488.101 71.981 C 496.864 70.733 518.049 70.826 526.443 72.151 C 536.359 73.715 536.826 73.343 532.41 67.389 C 530.325 64.578 527.146 61.268 525.345 60.034 C 518.841 55.577 508.776 53.468 501.344 55.005 M 494 83.63 C 475.171 86.327 463.965 89.02 454 93.245 C 438.45 99.837 436 102.342 436 111.649 C 436 116.674 436.714 116.923 442.764 114 C 445.041 112.9 449.369 111.358 452.381 110.573 C 455.393 109.788 458.816 108.634 459.987 108.007 C 468.051 103.691 505.687 100.597 522.066 102.904 C 538.773 105.256 554.511 110.558 571.84 119.673 C 575.327 121.507 578.589 122.754 579.09 122.445 C 579.59 122.135 580 118.435 580 114.221 C 580 106.82 579.89 106.465 576.75 103.756 C 573.767 101.182 557.63 92.82 550.5 90.154 C 537.585 85.325 506.905 81.782 494 83.63 M 475 116.586 C 468.675 117.925 461.025 119.736 458 120.61 C 448.931 123.23 433 130.311 433 131.722 C 433 132.581 433.782 132.85 435.25 132.496 C 453.886 128.01 479.949 126.653 494 129.437 C 518.573 134.306 547.27 148.593 577.462 170.987 C 582.067 174.402 588.827 181.008 598.455 191.5 C 607.787 201.67 613.998 213.756 613.999 221.75 C 614 224.637 614.41 227 614.911 227 C 615.412 227 617.018 225.579 618.479 223.842 L 621.137 220.684 L 620.818 199.074 L 620.5 177.464 L 617.199 172.482 C 608.021 158.629 582.148 137.989 561.66 128.176 C 533.482 114.68 503.152 110.623 475 116.586 M 457.5 141.728 C 455.85 141.963 446.789 143.672 437.365 145.526 C 413.443 150.229 404.154 151.313 392.291 150.786 C 382.731 150.361 382 150.461 382 152.204 C 382 155.75 386.286 162.471 392.529 168.714 C 405.415 181.6 428.486 188.376 457.92 187.919 C 471.712 187.705 479.886 186.801 498.225 183.465 C 521.804 179.176 549.84 170.019 548.814 166.942 C 548.014 164.541 520.064 150.381 508.5 146.519 C 494.852 141.96 471.342 139.752 457.5 141.728 M 565.5 190.278 C 561.1 193.557 553.225 198.217 548 200.632 C 542.775 203.047 537.375 205.645 536 206.406 C 531.335 208.986 512.548 214.854 501.5 217.182 C 491.847 219.216 487.806 219.493 468.5 219.446 C 446.6 219.393 442.398 218.917 424.829 214.495 L 422.158 213.823 L 421.829 222.015 C 421.648 226.521 421.762 230.628 422.083 231.142 C 422.44 231.715 423.725 231.675 425.398 231.039 C 427.038 230.415 438.717 230 454.605 230 C 478.611 230 481.426 230.177 484.79 231.894 C 486.83 232.935 489.263 234.631 490.195 235.662 C 492.474 238.182 495.951 245.987 495.978 248.643 C 496.007 251.485 497.692 252 506.954 252 L 514.744 252 L 515.414 247.811 C 516.367 241.855 519.699 236.476 524.424 233.268 L 528.5 230.5 L 558.5 230.284 L 588.5 230.069 L 588.776 214.962 L 589.053 199.855 L 585.996 195.995 C 584.315 193.872 580.815 190.376 578.219 188.225 L 573.5 184.315 L 565.5 190.278 M 257.77 239.076 L 254.694 242.152 L 255.403 261.826 C 255.792 272.647 256.656 287.08 257.323 293.899 C 258.648 307.447 258.123 310.26 254.167 310.827 C 249.18 311.542 247.468 308.94 245.098 297.046 C 242.373 283.368 234.678 256.684 232.501 253.361 C 230.843 250.83 227.271 249 223.991 249 C 218.841 249 214.26 258.09 216.783 263.305 C 217.367 264.512 221.501 276.685 225.969 290.355 C 233.648 313.851 234.007 315.34 232.534 317.589 C 230.474 320.732 226.625 321.639 223.642 319.685 C 221.856 318.515 219.576 313.278 214.058 297.663 C 206.359 275.882 204.631 273 199.267 273 C 194.748 273 193.114 273.878 191.375 277.243 C 189.422 281.018 189.978 284.149 195.05 297.923 C 197.192 303.74 201.905 317.05 205.524 327.5 C 217.09 360.903 220.617 370 222.002 370 C 222.365 370 223.242 371.083 223.95 372.407 C 225.237 374.811 234.205 379 238.066 379 C 239.104 379 240.671 380.095 241.548 381.433 C 242.856 383.43 242.923 384.281 241.921 386.183 C 240.196 389.457 238.956 390.05 235.25 389.372 C 231.181 388.628 231.177 388.755 234.694 403.692 C 237.172 414.214 237.553 415.084 239.444 414.532 C 244.557 413.041 275.988 404.85 280.265 403.893 C 287.68 402.235 287.946 401.65 285.891 391.5 C 284.921 386.712 283.91 382.577 283.643 382.31 C 283.377 382.043 281.66 381.077 279.829 380.162 C 277.847 379.173 276.374 377.615 276.189 376.311 C 275.682 372.753 278.996 370.5 286.784 369.108 C 295.733 367.509 298.125 365.908 315.925 349.617 C 329.494 337.196 330 336.591 330 332.767 C 330 327.417 324.865 322 319.794 322 C 315.77 322 312.893 323.984 300.693 335.172 C 293.027 342.203 291.347 343.3 288.418 343.189 C 281.671 342.936 278.7 339.035 279.071 330.918 C 279.157 329.038 278.522 320.3 277.66 311.5 C 276.799 302.7 275.598 287.625 274.991 278 C 272.729 242.114 272.104 239.13 266.383 236.955 C 262.425 235.451 261.059 235.787 257.77 239.076 M 428.332 243.063 C 426.589 244.18 424.676 246.489 424.082 248.196 C 423.464 249.968 423 258.881 423 268.975 L 423 286.651 L 425.578 289.076 C 428.128 291.472 428.413 291.503 450.698 291.804 C 473.217 292.108 473.242 292.106 476.963 289.643 C 483.188 285.523 484 282.532 484 263.705 L 484 247.212 L 481.099 244.106 L 478.198 241 L 454.849 241.017 C 433.11 241.033 431.282 241.174 428.332 243.063 M 532.354 242.174 C 527.873 244.343 526.784 249.381 527.176 266.118 C 527.496 279.771 527.778 281.879 529.683 284.874 C 534.033 291.713 535.132 291.986 558.282 291.993 C 580.373 292 584.717 291.266 586.92 287.15 C 587.584 285.909 588 277.86 588 266.24 C 588 247.923 587.932 247.286 585.75 245.299 C 584.513 244.172 582.517 242.744 581.316 242.125 C 578.473 240.661 535.391 240.704 532.354 242.174 M 760.5 244.718 C 756.884 245.596 752.183 249.916 751.025 253.424 C 748.785 260.213 754.067 269.714 760.327 270.152 C 764.949 270.476 765.597 270.409 768.729 269.281 C 775.322 266.908 778.066 257.079 773.981 250.469 C 772.226 247.63 765.633 243.734 763.23 244.116 C 762.828 244.18 761.6 244.451 760.5 244.718 M 449.31 255.077 C 442.947 259.153 441.409 269.553 446.179 276.251 C 452.419 285.015 467.069 281.647 469.819 270.817 C 471.111 265.723 469.673 261.307 465.164 256.527 C 462.273 253.462 461.226 253.002 457.169 253.017 C 454.198 253.028 451.34 253.777 449.31 255.077 M 548.418 253.924 C 545.23 255.283 541.153 260.67 540.441 264.464 C 538.889 272.734 545.701 281 554.067 281 C 559.137 281 564.921 277.493 566.926 273.203 C 569.413 267.884 566.852 258.684 562.256 256.425 C 561.022 255.818 560.234 255.099 560.506 254.827 C 560.778 254.556 560.438 254.308 559.75 254.277 C 559.063 254.245 556.7 253.954 554.5 253.628 C 552.3 253.302 549.563 253.435 548.418 253.924 M 393.5 266.959 C 389.994 268.419 386.156 273.358 384.917 278.006 C 383.237 284.308 385.593 292.024 390.902 297.608 C 395.043 301.963 396.754 302.745 404.106 303.637 C 407.762 304.08 408.838 303.864 409.328 302.587 C 409.668 301.702 409.661 293.758 409.314 284.933 L 408.682 268.887 L 405.891 267.444 C 402.856 265.874 396.685 265.633 393.5 266.959 M 605.962 268.25 L 601.5 270.5 L 601.5 287 L 601.5 303.5 L 606.882 303.207 C 613.092 302.869 616.181 301.473 620.811 296.908 C 627.205 290.604 628.712 282.167 624.863 274.218 C 621.002 266.24 614.204 264.094 605.962 268.25 M 496.639 270.694 C 496.288 271.046 496 273.046 496 275.138 C 496 283.706 487.404 296.631 478.723 301.116 C 475.226 302.924 473.157 303.044 450.723 302.742 C 437.401 302.563 425.488 302.045 424.25 301.592 L 422 300.767 L 422 312.278 C 422 339.352 432.924 353.279 465 367.1 C 481.628 374.265 486.818 375.198 507.837 374.802 C 525.193 374.476 527.056 374.256 534.442 371.668 C 544.856 368.019 563.168 358.803 569.637 353.955 C 579.854 346.299 585.636 338.048 587.917 327.869 C 588.848 323.715 588.618 302.284 587.631 301.298 C 587.378 301.045 586.262 301.324 585.151 301.919 C 582.524 303.325 540.832 303.359 535.792 301.959 C 531.344 300.724 524 293.581 524 290.49 C 524 285.99 521.939 282.341 518.46 280.682 C 515.362 279.205 515 278.613 515 275.016 L 515 271 L 508.25 270.926 C 504.538 270.885 500.55 270.672 499.389 270.453 C 498.228 270.234 496.991 270.343 496.639 270.694 M 492.287 300.379 C 492.828 303.716 492.782 303.764 488.627 304.233 C 481.722 305.011 476.944 307.954 468.377 316.704 C 463.91 321.267 459.875 325 459.412 325 C 458.948 325 456.455 327.082 453.872 329.626 L 449.176 334.252 L 453.838 336.742 C 463.557 341.932 480.155 342.945 496.54 339.346 C 503.143 337.896 504.593 337.934 519.908 339.957 C 539.028 342.483 544.587 342.124 554.293 337.736 L 561.087 334.664 L 556.835 330.332 C 554.497 327.949 552.18 326 551.686 326 C 550.521 326 544.391 320.848 544.853 320.257 C 545.047 320.008 542.965 317.441 540.226 314.551 C 534.794 308.82 528.201 305.105 521.983 304.271 C 517.515 303.672 517.543 303.705 519.212 301.032 C 520.907 298.317 519.19 297.058 517.164 299.531 C 510.863 307.221 497.001 306.881 494.492 298.974 C 493.421 295.601 491.69 296.704 492.287 300.379 M 808.5 369.297 C 804.909 371.33 804.073 372.614 800.324 381.863 L 796.147 392.164 L 800.324 394.06 C 802.621 395.103 805.002 395.966 805.617 395.978 C 807.8 396.021 817.582 400.428 822.859 403.746 C 825.807 405.599 828.324 406.977 828.454 406.807 C 829.394 405.58 835 390.818 835 389.57 C 835 388.706 835.45 388 836 388 C 836.55 388 837 386.267 837 384.148 C 837 375.391 826.444 366.982 815.5 367.022 C 813.85 367.028 810.7 368.052 808.5 369.297 M 469 390.184 C 469 398.362 471.082 403.788 476.042 408.54 L 479.089 411.459 L 505.744 411.61 L 532.4 411.762 L 536.184 408.053 C 540.881 403.448 543 397.643 543 389.374 C 543 385.868 542.877 383 542.727 383 C 542.577 383 538.019 384.125 532.599 385.5 C 524.026 387.675 520.565 388 506 388 C 491.435 388 487.974 387.675 479.401 385.5 C 473.981 384.125 469.423 383 469.273 383 C 469.123 383 469 386.233 469 390.184 M 426.303 394.048 C 420.584 395.178 411.103 399.1 404.309 403.145 C 398.986 406.314 383 421.323 383 423.151 C 383 424.821 384.84 423.945 388.64 420.464 C 397.197 412.625 405.011 410.845 427.672 411.574 C 434.916 411.807 441.554 411.725 442.422 411.392 C 443.575 410.949 444.002 409.401 444.006 405.643 C 444.01 402.814 444.606 399.363 445.331 397.974 C 447.567 393.689 446.538 392.99 438.167 393.11 C 433.95 393.17 428.611 393.592 426.303 394.048 M 566.543 393.931 C 566.226 394.443 566.386 395.12 566.897 395.436 C 567.408 395.752 568.189 397.921 568.632 400.255 C 569.733 406.057 569.754 406.2 569.885 408.75 C 569.999 410.984 570.113 411 585.864 411 C 604.126 411 610.917 412.017 616.262 415.554 C 621.194 418.818 623.069 417.738 619.332 413.786 C 607.611 401.392 589.493 393 574.454 393 C 570.419 393 566.859 393.419 566.543 393.931 M 775 406.871 C 771.975 407.841 767.613 409.885 765.306 411.413 C 760.476 414.613 753.147 424.549 754.57 425.967 C 755.082 426.476 767.425 431.907 782 438.036 C 796.575 444.164 811.404 450.531 814.952 452.184 C 824.857 456.796 830.876 459.013 831.346 458.22 C 831.581 457.824 832.334 454.964 833.02 451.865 C 836.419 436.506 830.356 423.457 815.446 414.04 C 802.087 405.603 787.19 402.963 775 406.871 M 285 415.103 C 277.025 417.267 261.275 421.436 250 424.366 L 229.5 429.693 L 229.246 433.096 C 229.106 434.968 229.59 438.75 230.321 441.5 C 231.601 446.315 231.777 446.495 235.075 446.361 C 236.959 446.284 246.825 443.881 257 441.021 C 267.175 438.16 282.217 434.056 290.427 431.9 C 298.637 429.744 305.557 427.776 305.805 427.528 C 306.054 427.28 305.706 424.922 305.034 422.288 C 304.361 419.655 303.605 416.407 303.353 415.07 C 302.756 411.898 302.144 410.982 300.691 411.084 C 300.036 411.129 292.975 412.938 285 415.103 M 890.104 421.535 C 885.873 426.353 885.959 430.159 890.4 434.6 C 894.841 439.041 898.647 439.127 903.465 434.896 C 906.344 432.369 907 431.089 907 428.002 C 907 422.476 902.615 418 897.202 418 C 893.881 418 892.684 418.596 890.104 421.535 M 404.558 424.487 C 398.653 426.598 395.803 429.139 392.647 435.106 C 390.028 440.057 389.839 441.116 390.346 448 C 390.65 452.125 391.831 470.35 392.97 488.5 C 397.027 553.137 397.577 558.602 400.52 563.624 C 403.567 568.824 409.597 573.51 415.404 575.192 C 418.429 576.069 442.246 576.369 506.5 576.34 L 593.5 576.3 L 598.395 573.972 C 601.087 572.691 604.857 570.076 606.772 568.161 C 612.527 562.406 613.738 558.281 614.451 542 C 615.435 519.527 617.935 474.951 618.461 470.5 C 618.721 468.3 619.204 460.425 619.533 453 L 620.132 439.5 L 617.216 434 C 614.839 429.519 613.319 427.994 609.009 425.769 L 603.719 423.038 L 506.109 423.058 C 424.708 423.075 407.845 423.312 404.558 424.487 M 371.311 435.806 C 350.257 459.236 335.094 475.885 329.711 481.481 L 323.921 487.5 L 324.514 492.603 C 324.84 495.409 325.758 499.868 326.554 502.512 C 328.535 509.097 328.401 510.327 325.364 513.364 C 322.143 516.584 320.835 516.649 317.603 513.75 C 315.505 511.869 314.426 508.552 311.016 493.5 C 306.098 471.784 299.126 443.793 298.474 443.141 C 298.214 442.881 293.614 443.876 288.251 445.351 C 282.888 446.827 271.527 449.862 263.004 452.097 C 254.481 454.331 247.356 456.311 247.171 456.496 C 246.075 457.592 261.492 519.778 266.153 533.065 C 268.528 539.833 275.362 548.777 281.26 552.835 C 292.486 560.558 308.963 561.57 319.966 555.211 C 322.46 553.769 330.35 548.547 337.5 543.606 C 344.65 538.664 354.128 532.119 358.561 529.06 C 362.995 526.002 370.108 521.025 374.368 518 L 382.112 512.5 L 381.518 504 C 381.191 499.325 379.994 484.475 378.858 471 C 377.722 457.525 377.043 444.363 377.349 441.751 C 377.804 437.865 379.536 433.085 382.782 426.75 C 382.994 426.337 382.482 426 381.644 426 C 380.807 426 376.157 430.412 371.311 435.806 M 633.022 444.867 C 633.01 449.469 631.883 469.044 630.517 488.367 C 629.151 507.69 627.876 525.873 627.683 528.773 C 627.371 533.454 627.565 534.094 629.416 534.483 C 630.562 534.724 636.675 535.859 643 537.005 C 661.44 540.347 673.507 545.189 674.64 549.702 C 675.563 553.377 674.212 556.909 671.637 557.555 C 670.243 557.905 666.836 557.137 663.16 555.643 C 659.781 554.27 654.65 552.46 651.758 551.62 C 644.977 549.651 629.021 546.869 628.029 547.482 C 627.608 547.742 626.957 550.264 626.583 553.087 C 625.642 560.178 623.276 566.737 619.876 571.68 C 618.294 573.979 617 576.122 617 576.441 C 617 576.76 636.013 576.904 659.25 576.761 L 701.5 576.5 L 701.253 570.5 C 700.861 560.954 699.284 556.065 692.84 544.419 C 679.009 519.421 672.871 508.163 650.582 466.915 C 642.979 452.843 635.922 440.243 634.901 438.915 C 633.047 436.504 633.044 436.513 633.022 444.867 M 183.146 461.75 C 181.587 463.262 179.507 466.631 178.525 469.235 C 175.704 476.716 177.489 483.393 185.25 494.4 C 188.83 499.478 188.72 501.08 184.5 505.3 C 182.575 507.225 181 509.54 181 510.445 C 181 512.219 185.287 517 186.878 517 C 188.937 517 193.87 511.807 195.887 507.517 C 199.457 499.922 198.809 494.87 193 485 C 190.25 480.328 188 475.628 188 474.556 C 188 473.484 189.165 470.926 190.589 468.872 C 193.573 464.565 193.217 461.875 189.434 460.152 C 186.137 458.65 186.416 458.579 183.146 461.75 M 156.84 462.75 C 152.223 467.762 150.999 470.342 151.044 474.973 C 151.101 480.83 152.686 485.023 157.824 492.905 C 160.121 496.428 162 499.627 162 500.014 C 162 500.402 160.429 502.694 158.51 505.109 C 154.655 509.958 154.216 512.073 156.571 514.429 C 162.188 520.046 172 510.285 172 499.08 C 172 495.753 171.267 492.786 169.826 490.28 C 160.769 474.532 160.725 474.36 164.5 469.411 C 165.875 467.608 167 465.293 167 464.267 C 167 459.412 160.773 458.482 156.84 462.75 M 497.139 479.088 C 485.693 482.585 477.069 494.161 477.022 506.09 C 477.005 510.354 477.725 513.132 480.058 517.8 C 483.558 524.805 487.238 528.28 494.868 531.787 C 511.703 539.526 533.235 525.145 533.235 506.163 C 533.235 495.887 526.861 485.598 517.5 480.765 C 512.885 478.383 502.3 477.511 497.139 479.088 M 499.5 490.573 C 490.125 495.449 486.465 504.855 490.574 513.514 C 492.507 517.589 498.496 521.882 503.346 522.669 C 510.484 523.827 518.882 518.066 520.98 510.57 C 524.638 497.508 510.848 484.67 499.5 490.573 M 367.5 538.604 C 360.35 543.809 353.712 548.723 352.75 549.524 C 351.256 550.767 351.002 552.774 351.015 563.24 C 351.024 569.983 351.361 575.95 351.765 576.5 C 352.753 577.845 393 577.218 393 575.858 C 393 575.313 391.884 573.403 390.52 571.615 C 386.578 566.447 385.385 561.551 383.975 544.75 C 383.147 534.886 382.251 529.026 381.576 529.07 C 380.984 529.109 374.65 533.4 367.5 538.604 M 179.725 544.749 L 158.949 545.041 L 159.225 560.77 L 159.5 576.5 L 182 576.5 L 204.5 576.5 L 204.55 561.5 C 204.578 553.25 204.417 545.938 204.193 545.25 C 203.969 544.563 203.047 544.103 202.143 544.229 C 201.239 544.354 191.151 544.588 179.725 544.749 M 818 558.084 C 804.011 558.659 799.418 559.569 794 562.84 C 790.223 565.121 781 574.255 781 575.716 C 781 576.746 792.34 577 838.441 577 C 873.531 577 896.11 576.631 896.468 576.053 C 897.39 574.559 885.957 563.509 881.022 561.125 C 872.777 557.141 858.107 556.433 818 558.084 M 97.416 590.358 C 97.163 591.017 97.079 600.544 97.228 611.528 L 97.5 631.5 L 507.5 631.5 L 917.5 631.5 L 917.77 610.75 L 918.041 590 L 509.77 589.923 C 285.222 589.881 100.685 589.692 99.688 589.503 C 98.692 589.314 97.669 589.698 97.416 590.358 M 129.25 643.69 C 128.258 644.068 128 673.371 128 785.583 C 128 863.362 128.338 927.021 128.75 927.046 C 129.779 927.109 177.192 927.113 178.753 927.05 C 179.753 927.01 179.956 898.363 179.753 785.547 L 179.5 644.094 L 155 643.653 C 141.525 643.411 129.938 643.427 129.25 643.69 M 195.904 643.755 L 193.309 644.103 L 192.658 659.802 C 191.848 679.324 191.782 924.268 192.586 926.363 C 193.079 927.649 195.914 927.895 210.586 927.921 L 228 927.953 L 228 785.583 L 228 643.212 L 213.25 643.309 C 205.137 643.363 197.332 643.563 195.904 643.755 M 241.247 643.784 C 240.25 644.451 240.045 673.588 240.247 786.061 L 240.5 927.5 L 265.896 927.271 C 279.863 927.145 291.531 926.803 291.823 926.511 C 292.115 926.218 291.178 924.746 289.741 923.24 C 280.715 913.779 285.147 895.192 297.202 891.946 L 301 890.923 L 301 885.396 C 301 879.986 302.2 876.234 304.4 874.765 C 305.005 874.361 318.633 874.024 334.685 874.015 C 351.892 874.006 364.961 873.585 366.529 872.989 L 369.188 871.978 L 366.108 868.471 C 364.415 866.542 362.77 863.933 362.454 862.674 C 362.138 861.415 362.019 851.345 362.19 840.295 C 362.555 816.648 362.797 816 371.272 816 C 375.929 816 376.196 815.862 375.63 813.75 C 375.299 812.513 375.021 799.497 375.014 784.828 L 375 758.155 L 371.25 756.941 C 363.817 754.535 357.827 750.827 352.068 745.068 C 339.388 732.388 337 724.679 337 696.43 L 337 676.317 L 333.016 675.123 C 330.825 674.467 328.575 673.075 328.016 672.03 C 327.457 670.986 327 664.252 327 657.066 L 327 644 L 287.625 644 C 265.969 644 246.956 643.763 245.375 643.473 C 243.794 643.183 241.936 643.323 241.247 643.784 M 339.478 643.918 C 338.93 644.463 338.64 649.09 338.819 654.446 L 339.137 664 L 349.069 664 C 360.421 664 359.235 665.362 359.405 652.131 C 359.489 645.618 359.268 644.679 357.5 644.053 C 354.362 642.94 340.564 642.837 339.478 643.918 M 373.235 643.784 C 372.252 644.446 372.028 651.193 372.235 673.986 C 372.512 704.7 373.475 710.749 375.781 696.258 C 377.33 686.523 380.814 679.568 387.654 672.562 L 393 667.087 L 393 655.543 C 393 645.226 392.814 643.997 391.25 643.974 C 390.288 643.959 386.125 643.719 382 643.439 C 377.875 643.16 373.931 643.315 373.235 643.784 M 405.001 652.25 C 405 662.176 404.617 661.856 413.661 659.5 C 421.644 657.421 429.932 657.623 437.282 660.075 C 446.187 663.047 451.037 666.146 458.728 673.78 L 465.5 680.5 L 504 681 L 542.5 681.5 L 549.58 674.48 C 563.717 660.463 579.574 655.393 596.5 659.48 C 606.582 661.914 606.12 662.274 605.789 652.25 L 605.5 643.5 L 505.251 643.5 L 405.003 643.5 L 405.001 652.25 M 618.667 643.667 C 618.3 644.033 618 649.936 618 656.784 L 618 669.235 L 622.007 673.242 C 627.336 678.571 632.835 689.912 633.77 697.5 C 634.303 701.83 634.925 703.5 636.004 703.5 C 637.292 703.5 637.537 699.408 637.765 674.069 C 637.972 651.189 637.749 644.458 636.765 643.834 C 635.24 642.866 619.612 642.722 618.667 643.667 M 788.417 643.917 C 788.188 644.146 788 707.903 788 785.599 C 788 919.28 788.094 926.892 789.75 927.369 C 791.817 927.963 822.026 927.307 822.68 926.654 C 822.926 926.407 823.098 862.848 823.062 785.411 C 823.011 675.036 822.731 644.452 821.766 643.855 C 820.522 643.086 789.191 643.144 788.417 643.917 M 835.612 643.721 C 834.722 644.611 834.859 926.985 835.75 927.081 C 839.887 927.526 884.078 927.478 885.866 927.026 L 888.231 926.428 L 888.062 785.494 C 887.97 707.981 887.805 644.485 887.697 644.393 C 887.082 643.872 836.119 643.214 835.612 643.721 M 649.95 645.5 C 649.923 646.325 649.877 650.466 649.85 654.702 C 649.79 663.877 649.727 663.827 661.75 663.93 L 670 664 L 670 654 L 670 644 L 660 644 C 651.8 644 649.991 644.27 649.95 645.5 M 682 657.309 C 682 672.188 681.462 673.75 675.951 674.874 L 672.5 675.579 L 672 699.039 L 671.5 722.5 L 667.607 730.5 C 662.538 740.915 653.882 749.617 644.283 753.948 C 640.552 755.631 636.825 757.392 636 757.862 C 634.745 758.576 634.418 763.123 634 785.704 C 633.725 800.548 633.645 813.437 633.823 814.346 C 634.044 815.473 635.167 816 637.351 816 C 639.113 816 641.555 816.701 642.777 817.557 C 644.964 819.088 645 819.483 645 842.022 L 645 864.93 L 641.824 868.548 C 639.242 871.488 638.915 872.334 640.074 873.072 C 640.858 873.571 655 873.939 671.5 873.89 C 688 873.841 702.266 874.11 703.202 874.489 C 705.485 875.412 707.357 881.415 706.673 885.625 C 706.045 889.499 706.566 890.13 713 893.29 C 716.589 895.053 718.024 896.576 720.09 900.813 C 721.515 903.735 722.741 907.729 722.815 909.688 C 722.958 913.497 719.686 922.186 717.39 924.091 C 716.626 924.726 716 925.848 716 926.586 C 716 927.682 721.35 927.888 745.25 927.714 C 763.111 927.583 774.775 927.115 775.206 926.512 C 775.952 925.469 775.993 659.606 775.249 649.75 L 774.815 644 L 728.407 644 L 682 644 L 682 657.309 M 410.064 673.092 C 404.816 674.8 402.481 676.334 397.414 681.401 C 387.159 691.656 387.435 689.447 387.807 758.263 L 388.119 816.025 L 423.131 815.763 L 458.144 815.5 L 458.071 756.784 C 457.999 699.382 457.95 697.941 455.864 692.366 C 453.131 685.062 447.179 678.633 439.537 674.731 C 431.426 670.589 419.748 669.94 410.064 673.092 M 574.5 672.335 C 567.828 674.527 560.971 679.44 556.729 685.069 C 550.755 692.995 550.833 692.04 550.97 755.923 C 551.039 788.056 551.326 814.719 551.607 815.173 C 551.888 815.628 567.616 816 586.559 816 L 621 816 L 621.215 760.25 C 621.334 729.587 621.361 702.81 621.276 700.745 C 621.05 695.292 615.447 684.667 610.289 679.912 C 603.599 673.746 598.11 671.677 587.5 671.322 C 581.953 671.137 576.965 671.525 574.5 672.335 M 650 691.356 L 650 707.712 L 646.56 712.218 C 644.524 714.885 641.258 717.598 638.56 718.867 L 634 721.01 L 634 732.005 C 634 742.931 634.015 743 636.39 743 C 639.956 743 650.164 734.984 653.712 729.399 C 658.997 721.078 660 715.735 660 695.9 C 660 686.145 659.727 677.452 659.393 676.582 C 658.967 675.472 657.476 675 654.393 675 L 650 675 L 650 691.356 M 350.181 698.25 C 350.497 720.292 350.526 720.549 353.242 725.702 C 356.614 732.098 362.428 738.157 367.841 740.919 C 374.943 744.542 375 744.468 375 731.513 L 375 720.027 L 371.25 718.46 C 369.188 717.599 366.222 715.68 364.661 714.197 C 359.475 709.271 359 707.328 359 691.05 L 359 676 L 354.431 676 L 349.863 676 L 350.181 698.25 M 471.633 693.784 C 471.367 694.215 471.408 700.74 471.724 708.284 L 472.3 722 L 487.9 722.127 C 496.48 722.197 511.15 722.309 520.5 722.377 L 537.5 722.5 L 537.555 715 C 537.586 710.875 537.811 704.35 538.055 700.5 L 538.5 693.5 L 505.309 693.251 C 487.053 693.114 471.899 693.354 471.633 693.784 M 472.68 735.653 C 472.306 736.027 472.001 744.246 472.002 753.917 L 472.003 771.5 L 503.752 771.5 C 521.213 771.5 535.994 771.178 536.597 770.785 C 537.33 770.308 537.662 764.331 537.597 752.785 L 537.5 735.5 L 505.43 735.236 C 487.792 735.091 473.054 735.279 472.68 735.653 M 470.703 804.145 C 470.814 809.725 471.377 815.643 471.953 817.295 C 472.529 818.947 473 824.281 473 829.149 L 473 838 L 478.893 838 C 482.872 838 484.952 837.568 485.296 836.671 C 485.576 835.94 485.789 827.654 485.769 818.257 L 485.732 801.172 L 482.523 800.57 C 480.758 800.239 477.556 798.638 475.407 797.012 C 473.258 795.386 471.275 794.043 471 794.027 C 470.725 794.011 470.591 798.564 470.703 804.145 M 535.524 795.962 C 535.161 796.548 533.085 797.936 530.91 799.046 L 526.955 801.064 L 527.228 819.282 L 527.5 837.5 L 531.5 837.5 L 535.5 837.5 L 535.79 828.653 C 535.982 822.811 536.602 819.011 537.615 817.466 C 539.496 814.594 539.266 795.917 537.342 795.278 C 536.705 795.067 535.887 795.375 535.524 795.962 M 497.68 802.711 C 497.413 803.145 497.263 816.55 497.347 832.5 L 497.5 861.5 L 506 861.5 L 514.5 861.5 L 514.5 832 L 514.5 802.5 L 506.333 802.211 C 501.841 802.052 497.948 802.277 497.68 802.711 M 589.723 828.761 L 548.945 829.022 L 549.223 843.261 L 549.5 857.5 L 590.434 857.761 C 622.517 857.966 631.541 857.75 632.169 856.761 C 633.561 854.568 633.182 829.266 631.75 828.857 C 631.063 828.661 612.15 828.618 589.723 828.761 M 375.562 829.9 C 375.256 830.395 375.299 836.925 375.658 844.411 L 376.311 858.022 L 417.906 857.761 L 459.5 857.5 L 459.777 843.25 L 460.055 829 L 418.086 829 C 394.295 829 375.877 829.39 375.562 829.9 M 531.713 872.771 L 511.926 873.043 L 512.213 882.233 L 512.5 891.423 L 516 892.131 C 520.349 893.01 525.598 898.794 527.096 904.356 C 528.89 911.018 527.1 918.919 522.704 923.746 C 521.579 924.981 520.915 926.248 521.227 926.561 C 521.686 927.02 534.937 927.233 550.5 927.032 L 553 927 L 553 900.059 C 553 885.241 552.663 872.979 552.25 872.809 C 551.837 872.639 542.596 872.622 531.713 872.771 M 456.234 900.25 L 456.5 927.5 L 472.706 927.726 C 482.361 927.861 489.154 927.561 489.511 926.982 C 489.841 926.449 489.002 924.547 487.648 922.756 C 483.89 917.789 482.664 911.936 484.016 905.422 C 485.409 898.713 488.683 894.668 494.528 892.436 L 499 890.728 L 499 881.864 L 499 873 L 477.484 873 L 455.968 873 L 456.234 900.25 M 407 876.937 C 401.998 877.903 398.181 880.726 395.942 885.113 C 392.112 892.62 392.538 893 404.782 893 C 414.455 893 418.419 893.611 427.898 896.564 C 430.237 897.292 430.282 897.197 429.769 892.645 C 428.528 881.632 418.502 874.715 407 876.937 M 589.168 878.146 C 584.633 880.391 580.513 885.581 579.561 890.25 C 579.252 891.763 578.766 894.125 578.481 895.5 C 577.832 898.626 579.005 898.672 584.934 895.75 C 588.876 893.808 591.209 893.483 602 893.378 C 616.122 893.239 616.554 892.966 613.165 886.325 C 608.349 876.889 598.494 873.53 589.168 878.146 M 314.667 886.667 C 312.854 888.48 314.144 891.079 317.156 891.681 C 323.736 892.997 330 902.369 330 910.898 C 330 914.831 327.593 920.74 324.766 923.75 C 323.323 925.285 322.956 926.356 323.638 927.038 C 324.263 927.663 331.109 927.945 341.553 927.775 L 358.455 927.5 L 359.616 922.5 C 362.122 911.71 367.342 903.688 374.237 900.03 C 378.311 897.869 378.841 897.177 379.368 893.334 C 380.438 885.526 382.527 886 347.06 886 C 329.61 886 315.033 886.3 314.667 886.667 M 629.667 886.667 C 629.3 887.033 629 889.503 629 892.154 C 629 896.631 629.268 897.147 632.75 899.38 C 634.813 900.703 637.486 902.726 638.691 903.876 C 641.082 906.159 647 914.456 647 915.526 C 647 915.893 647.707 918.624 648.571 921.596 L 650.142 927 L 667.571 927 C 677.157 927 685 926.727 685 926.394 C 685 926.061 683.892 924.472 682.538 922.863 C 678.361 917.899 677.084 910.838 679.071 903.685 C 680.277 899.339 687.065 892 689.878 892 C 692.737 892 694.558 889.377 693 887.5 C 691.943 886.226 687.123 886 661.044 886 C 644.153 886 630.033 886.3 629.667 886.667 M 391.68 906.039 C 380.424 908.864 371 919.996 371 930.468 L 371 934 L 406.5 934 C 441.689 934 442 933.982 442 931.938 C 442 927.957 436.887 919.071 432.194 914.896 C 424.314 907.886 418.244 905.675 406.005 905.355 C 400.227 905.204 393.781 905.512 391.68 906.039 M 594 905.885 C 580.597 908.862 569.482 919.157 566.614 931.25 L 565.962 934 L 601.481 934 L 637 934 L 637 929.96 C 637 922.279 629.89 912.297 621.398 908.056 C 617.571 906.145 614.759 905.622 607.068 905.393 C 601.806 905.236 595.925 905.457 594 905.885 M 456.809 942.513 C 456.583 944.446 456.66 946.45 456.98 946.967 C 457.45 947.728 507.684 948.34 545.75 948.048 L 552 948 L 552 943.5 L 552 939 L 504.609 939 L 457.219 939 L 456.809 942.513" stroke-linecap="round" />
</g>
		<g transform="matrix(1 0 0 1 0.67 170.7)"  >
<path style="stroke: none; stroke-width: 1; stroke-dasharray: none; stroke-linecap: butt; stroke-dashoffset: 0; stroke-linejoin: miter; stroke-miterlimit: 4; fill: rgba(255,255,255, 0); fill-rule: evenodd; opacity: 1;" vector-effect="non-scaling-stroke"  transform=" translate(-517.19, -671.93)" d="M 469 390.184 C 469 398.362 471.082 403.788 476.042 408.54 L 479.089 411.459 L 505.744 411.61 L 532.4 411.762 L 536.184 408.053 C 540.881 403.448 543 397.643 543 389.374 C 543 385.868 542.877 383 542.727 383 C 542.577 383 538.019 384.125 532.599 385.5 C 524.026 387.675 520.565 388 506 388 C 491.435 388 487.974 387.675 479.401 385.5 C 473.981 384.125 469.423 383 469.273 383 C 469.123 383 469 386.233 469 390.184 M 470.009 390.821 C 470.017 396.398 470.512 398.36 473.01 402.715 C 474.655 405.583 476.871 408.396 477.934 408.965 C 479.127 409.603 489.975 410 506.238 410 L 532.608 410 L 535.761 406.746 C 539.74 402.641 542 396.309 542 389.267 C 542 384.431 541.794 383.873 540.25 384.528 C 539.288 384.936 534.9 386.153 530.5 387.233 C 523.521 388.945 520.012 389.136 503 388.735 C 487.058 388.358 482.268 387.897 476.75 386.208 L 470 384.141 L 470.009 390.821 M 367.5 538.604 C 360.35 543.809 353.712 548.723 352.75 549.524 C 351.256 550.767 351.002 552.774 351.015 563.24 C 351.024 569.983 351.361 575.95 351.765 576.5 C 352.753 577.845 393 577.218 393 575.858 C 393 575.313 391.884 573.403 390.52 571.615 C 386.578 566.447 385.385 561.551 383.975 544.75 C 383.147 534.886 382.251 529.026 381.576 529.07 C 380.984 529.109 374.65 533.4 367.5 538.604 M 378.052 532.768 C 376.156 534.27 369.631 538.875 363.552 543 L 352.5 550.5 L 352.22 563.25 L 351.94 576 L 371.47 576 C 387.392 576 391 575.745 391 574.622 C 391 573.865 390.374 572.726 389.61 572.091 C 386.008 569.102 383.824 560.823 382.883 546.6 C 382.37 538.845 381.849 531.945 381.725 531.268 C 381.585 530.498 380.205 531.062 378.052 532.768 M 398.044 557.637 C 397.971 561.177 404.138 569.219 409.419 572.471 L 414.338 575.5 L 434.419 576.107 C 467.521 577.107 593.875 576.192 595.816 574.937 C 597.327 573.961 597.309 573.909 595.64 574.435 C 592.346 575.474 418.746 575.148 415.215 574.097 C 407.568 571.821 402.057 566.607 399.38 559.115 C 398.487 556.618 398.074 556.161 398.044 557.637 M 910.798 576.149 C 911.184 576.506 914.729 576.968 918.677 577.177 C 930.588 577.808 930 576.103 930 609.981 L 930 638.651 L 927.686 640.826 C 925.56 642.822 924.334 643 912.682 643 L 899.993 643 L 900.247 785.167 C 900.47 910.5 900.678 927.392 902 927.829 C 903.234 928.237 903.278 928.056 902.247 926.806 C 901.252 925.601 901.045 896.242 901.247 784.893 L 901.5 644.5 L 914.342 644 C 932.351 643.299 931 646.03 931 610.323 C 931 593.808 930.592 581.106 930.028 580.052 C 929.493 579.053 928.256 577.877 927.278 577.44 C 925.068 576.451 909.834 575.258 910.798 576.149 M 97.447 590.278 C 97.177 590.981 97.079 600.544 97.228 611.528 L 97.5 631.5 L 507.5 631.5 L 917.5 631.5 L 917.77 610.75 L 918.041 590 L 915.27 590.136 C 912.881 590.254 912.812 590.332 914.771 590.708 L 917.042 591.145 L 916.771 610.822 L 916.5 630.5 L 507.194 630.751 L 97.888 631.002 L 98.194 610 C 98.362 598.449 98.373 588.998 98.219 588.999 C 98.064 589 97.717 589.575 97.447 590.278 M 222.329 590.75 C 267.335 590.894 340.685 590.894 385.329 590.75 C 429.973 590.606 393.15 590.488 303.5 590.488 C 213.85 590.488 177.323 590.606 222.329 590.75 M 130 644.047 C 130 644.571 132.137 645.026 134.75 645.058 C 139.59 645.116 148.956 646.676 145.725 646.885 C 143.035 647.059 141.704 651.681 142.817 656.986 L 143.764 661.5 L 144.033 657.5 C 144.181 655.3 144.199 652.221 144.075 650.658 C 143.878 648.198 144.126 647.905 145.924 648.476 C 147.568 648.998 148 648.705 148 647.067 C 148 645.066 148.498 645 163.5 645 L 179 645 L 179 785.45 C 179 918.158 178.904 925.957 177.25 926.92 C 176.287 927.481 175.95 927.946 176.5 927.954 C 180.057 928.008 180.013 929.909 179.753 785.236 L 179.5 644.094 L 154.75 643.594 C 139.377 643.283 130 643.455 130 644.047 M 195.5 644.054 C 193.518 644.523 195.723 644.832 202 644.965 C 207.225 645.076 212.532 645.28 213.792 645.419 C 215.053 645.558 216.317 645.296 216.601 644.836 C 217.577 643.258 225.74 643.879 226.393 645.582 C 226.727 646.452 227 710.06 227 786.934 L 227 926.704 L 210.25 926.602 L 193.5 926.5 L 192.994 795.5 L 192.489 664.5 L 192.244 794.668 C 192.11 866.261 192.264 925.523 192.586 926.363 C 193.079 927.649 195.914 927.895 210.586 927.921 L 228 927.953 L 228 785.583 L 228 643.212 L 213.25 643.278 C 205.137 643.315 197.15 643.664 195.5 644.054 M 241.247 643.826 C 240.25 644.459 240.045 673.57 240.247 786.061 L 240.5 927.5 L 244 927.673 C 247.407 927.841 247.42 927.828 244.5 927.163 L 241.5 926.48 L 241.5 785.535 L 241.5 644.59 L 244 643.895 C 246.002 643.338 246.101 643.183 244.5 643.115 C 243.4 643.069 241.936 643.389 241.247 643.826 M 405.001 652.25 C 405 661.898 405.389 662.344 411.685 659.913 C 413.233 659.315 418.325 658.478 423 658.053 C 430.834 657.339 431.03 657.271 425.5 657.183 C 419.876 657.093 415.259 657.725 408.75 659.477 L 406 660.217 L 406 652.001 C 406 644.921 406.219 643.87 407.582 644.393 C 408.452 644.727 453.227 645 507.082 645 L 605 645 L 605 652.5 C 605 656.625 604.887 660 604.75 660 C 604.612 660 601.349 659.333 597.5 658.517 C 579.079 654.616 564.547 659.068 549.692 673.166 L 542.5 679.991 L 504.413 679.996 L 466.325 680 L 462.078 675.469 C 453.834 666.673 439.428 657.948 433.27 658.021 C 432.296 658.033 434.59 659.132 438.366 660.465 C 447.001 663.512 451.723 666.632 459.411 674.371 L 465.5 680.5 L 504 681 L 542.5 681.5 L 549.58 674.48 C 563.717 660.463 579.574 655.393 596.5 659.48 C 606.582 661.914 606.12 662.274 605.789 652.25 L 605.5 643.5 L 505.251 643.5 L 405.003 643.5 L 405.001 652.25 M 788.366 644.5 C 788.157 645.05 788.103 708.95 788.246 786.5 L 788.507 927.5 L 788.753 786.25 L 789 645 L 805.507 645 L 822.014 645 L 821.757 786 C 821.616 863.55 821.837 927 822.25 927 C 823.078 927 823.177 903.906 823.011 749.527 C 822.925 669.971 822.611 644.378 821.716 643.824 C 819.904 642.704 788.809 643.334 788.366 644.5 M 835.612 643.721 C 834.938 644.395 834.745 927 835.418 927 C 835.648 927 836.661 927.259 837.668 927.576 C 839.379 928.113 839.384 928.077 837.75 927.026 C 836.097 925.963 836 918.117 836 785.45 L 836 645 L 861.5 645 L 887 645 L 887 786.167 C 887 863.808 887.277 927.056 887.615 926.718 C 888.147 926.187 888.228 644.844 887.697 644.393 C 887.082 643.872 836.119 643.214 835.612 643.721 M 471.633 693.784 C 471.367 694.215 471.408 700.74 471.724 708.284 L 472.3 722 L 487.9 722.127 C 496.48 722.197 511.15 722.309 520.5 722.377 L 537.5 722.5 L 537.555 715 C 537.586 710.875 537.811 704.35 538.055 700.5 L 538.5 693.5 L 505.309 693.251 C 487.053 693.114 471.899 693.354 471.633 693.784 M 472.398 698.885 C 472.729 701.302 473 707.266 473 712.14 L 473 721 L 504.75 720.998 L 536.5 720.996 L 536.5 707.766 L 536.5 694.536 L 504.148 694.513 L 471.795 694.49 L 472.398 698.885 M 620.647 703.719 C 620.303 705.799 620.017 731.688 620.011 761.25 L 620 815 L 586.009 815 L 552.018 815 L 551.745 764.75 L 551.473 714.5 L 551.486 765 L 551.5 815.5 L 586.211 815.763 L 620.923 816.026 L 621.211 758.263 C 621.37 726.493 621.449 700.374 621.386 700.219 C 621.323 700.065 620.991 701.64 620.647 703.719 M 946.706 936.528 L 944.912 938.993 L 797.206 939.247 L 649.5 939.5 L 649.5 943.5 L 649.5 947.5 L 661 947.548 L 672.5 947.595 L 661.25 947.266 L 650 946.937 L 650 943.468 L 650 940 L 797.5 940 C 943.667 940 945.018 939.982 947 938 C 948.1 936.9 949 935.55 949 935 C 949 933.573 948.721 933.759 946.706 936.528 M 86.314 938.25 C 88.111 939.899 96.038 940 223.111 940 L 358 940 L 358 943.479 L 358 946.958 L 338.75 947.261 L 319.5 947.563 L 339 947.532 L 358.5 947.5 L 358.5 943.5 L 358.5 939.5 L 222.904 939 C 134.97 938.676 86.797 938.148 85.856 937.5 C 85.059 936.95 85.264 937.288 86.314 938.25 M 429.33 960.75 C 490.287 960.892 589.737 960.892 650.33 960.75 C 710.924 960.608 661.05 960.491 539.5 960.491 C 417.95 960.491 368.374 960.608 429.33 960.75" stroke-linecap="round" />
</g>
</g>
</g>
</svg>